<svg width="428" height="199" viewBox="0 0 428 199" fill="none" xmlns="http://www.w3.org/2000/svg">
  <!-- Grid background -->
  <defs>
    <pattern id="grid" width="40" height="40" patternUnits="userSpaceOnUse">
      <path d="M 40 0 L 0 0 0 40" fill="none" stroke="#374151" stroke-width="0.5" opacity="0.3"/>
    </pattern>
  </defs>
  <rect width="428" height="199" fill="url(#grid)"/>
  
  <!-- Red cubes -->
  <g transform="translate(300, 40)">
    <!-- First cube -->
    <path d="M0 20 L20 0 L40 20 L20 40 Z" fill="#EF4444"/>
    <path d="M20 0 L40 20 L40 40 L20 20 Z" fill="#DC2626"/>
    <path d="M0 20 L20 40 L20 60 L0 40 Z" fill="#B91C1C"/>
    
    <!-- Second cube -->
    <g transform="translate(30, -10)">
      <path d="M0 20 L20 0 L40 20 L20 40 Z" fill="#EF4444"/>
      <path d="M20 0 L40 20 L40 40 L20 20 Z" fill="#DC2626"/>
      <path d="M0 20 L20 40 L20 60 L0 40 Z" fill="#B91C1C"/>
    </g>
  </g>
</svg>
