<svg width="20" height="20" viewBox="0 0 20 20" fill="none" xmlns="http://www.w3.org/2000/svg">
<g clip-path="url(#clip0_587_22)">
<path d="M1.48981 13.0957C1.235 11.8917 1.24532 10.6733 1.49054 9.51337C2.45569 9.62704 3.29812 9.30739 3.57358 8.64235C3.84905 7.97732 3.47938 7.15561 2.71656 6.55352C3.36337 5.55991 4.21764 4.69105 5.24913 4.0199C5.85128 4.78312 6.67323 5.15305 7.33843 4.87751C8.00363 4.60197 8.32321 3.75919 8.20936 2.79374C9.4133 2.53892 10.6317 2.54925 11.7917 2.79446C11.6781 3.75961 11.9976 4.60204 12.6627 4.87751C13.3277 5.15298 14.1495 4.7833 14.7516 4.02048C15.7451 4.66729 16.614 5.52156 17.2851 6.55306C16.5219 7.1552 16.152 7.97715 16.4276 8.64235C16.7031 9.30755 17.5459 9.62721 18.5113 9.51328C18.7662 10.7172 18.7558 11.9356 18.5106 13.0956C17.5455 12.982 16.703 13.3016 16.4276 13.9666C16.1521 14.6316 16.5217 15.4534 17.2846 16.0555C16.6378 17.049 15.7835 17.9179 14.752 18.5891C14.1499 17.8259 13.3279 17.4559 12.6627 17.7315C11.9975 18.007 11.6779 18.8498 11.7918 19.8152C10.5878 20.0701 9.36938 20.0597 8.20944 19.8145C8.32312 18.8494 8.00346 18.007 7.33843 17.7315C6.67339 17.456 5.85169 17.8256 5.24958 18.5885C4.25598 17.9417 3.38712 17.0875 2.71598 16.0559C3.47919 15.4538 3.84912 14.6318 3.57358 13.9666C3.29805 13.3015 2.45526 12.9818 1.48981 13.0957ZM3.04411 11.4873C4.00046 11.752 4.78969 12.358 5.18033 13.3011C5.57097 14.2442 5.44142 15.2308 4.95233 16.0942C5.0363 16.1826 5.12257 16.2689 5.21104 16.3527C6.07441 15.8636 7.06095 15.7342 8.00396 16.1248C8.94695 16.5154 9.55295 17.3045 9.81773 18.2608C9.93956 18.2641 10.0615 18.2642 10.1834 18.261C10.4481 17.3046 11.0541 16.5154 11.9972 16.1248C12.9403 15.7341 13.9269 15.8636 14.7903 16.3528C14.8787 16.2688 14.9649 16.1825 15.0487 16.094C14.5597 15.2307 14.4302 14.2441 14.8208 13.3011C15.2114 12.3581 16.0006 11.7521 16.9569 11.4874C16.9602 11.3656 16.9603 11.2436 16.957 11.1216C16.0007 10.857 15.2115 10.251 14.8208 9.30788C14.4302 8.3648 14.5597 7.3782 15.0488 6.51481C14.9649 6.42635 14.8786 6.34017 14.7901 6.25633C13.9268 6.74536 12.9402 6.87486 11.9972 6.48426C11.0542 6.09365 10.4482 5.30448 10.1835 4.3482C10.0616 4.34492 9.93964 4.34486 9.81773 4.34803C9.55304 5.30439 8.94704 6.09362 8.00396 6.48426C7.06088 6.87489 6.07428 6.74534 5.21088 6.25626C5.12242 6.34022 5.03625 6.42649 4.95241 6.51497C5.44144 7.37833 5.57094 8.36487 5.18033 9.30788C4.78972 10.2509 4.00056 10.857 3.04427 11.1216C3.04099 11.2435 3.04093 11.3654 3.04411 11.4873ZM10.0006 13.9132C8.55982 13.9132 7.39187 12.7452 7.39187 11.3045C7.39187 9.86373 8.55982 8.6958 10.0006 8.6958C11.4413 8.6958 12.6093 9.86373 12.6093 11.3045C12.6093 12.7452 11.4413 13.9132 10.0006 13.9132ZM10.0006 12.1741C10.4808 12.1741 10.8702 11.7848 10.8702 11.3045C10.8702 10.8243 10.4808 10.435 10.0006 10.435C9.52034 10.435 9.13104 10.8243 9.13104 11.3045C9.13104 11.7848 9.52034 12.1741 10.0006 12.1741Z" fill="#FC9237"/>
</g>
<defs>
<clipPath id="clip0_587_22">
<rect width="20" height="20" fill="white"/>
</clipPath>
</defs>
</svg>
