<svg width="20" height="20" viewBox="0 0 20 20" fill="none" xmlns="http://www.w3.org/2000/svg">
<path d="M1.66669 3.33333C1.66669 2.8731 2.03979 2.5 2.50002 2.5H17.5C17.9603 2.5 18.3334 2.8731 18.3334 3.33333V16.6667C18.3334 17.1269 17.9603 17.5 17.5 17.5H2.50002C2.03979 17.5 1.66669 17.1269 1.66669 16.6667V3.33333ZM3.33335 4.16667V15.8333H16.6667V4.16667H3.33335ZM5.00002 5.83333H10V10.8333H5.00002V5.83333ZM6.66669 7.5V9.16667H8.33335V7.5H6.66669ZM11.6667 7.5H15V5.83333H11.6667V7.5ZM15 10.8333H11.6667V9.16667H15V10.8333ZM5.00002 12.5V14.1667H15V12.5H5.00002Z" fill="#FC9237"/>
</svg>
