<svg width="20" height="20" viewBox="0 0 20 20" fill="none" xmlns="http://www.w3.org/2000/svg">
<path d="M12.9181 16.6707C12.3693 17.9868 11.3161 19.04 9.99998 19.5888C8.68381 19.04 7.63064 17.9868 7.08178 16.6707H8.96456C9.23648 17.0778 9.58756 17.4309 9.99998 17.7067C10.4124 17.4309 10.7635 17.0778 11.0354 16.6707H12.9181ZM15 12.3413L16.6666 14.2314V15.8373H3.33331V14.2314L4.99998 12.3413V7.50398C4.99998 4.60128 7.087 2.13185 9.99998 1.21666C12.913 2.13185 15 4.60128 15 7.50398V12.3413ZM14.391 14.1707L13.3333 12.9711V7.50398C13.3333 5.57245 12.0243 3.81193 9.99998 2.98653C7.97563 3.81193 6.66665 5.57245 6.66665 7.50398V12.9711L5.60895 14.1707H14.391ZM9.99998 9.17067C9.07948 9.17067 8.33331 8.42442 8.33331 7.50398C8.33331 6.58351 9.07948 5.83732 9.99998 5.83732C10.9205 5.83732 11.6666 6.58351 11.6666 7.50398C11.6666 8.42442 10.9205 9.17067 9.99998 9.17067Z" fill="#FC9237"/>
</svg>
