<svg width="20" height="20" viewBox="0 0 20 20" fill="none" xmlns="http://www.w3.org/2000/svg">
<path d="M16.7362 12.6666L17.7379 13.2677C17.9353 13.3861 17.9992 13.642 17.8808 13.8393C17.8456 13.898 17.7966 13.9471 17.7379 13.9822L10.4288 18.3677C10.1649 18.5261 9.83518 18.5261 9.57134 18.3677L2.2622 13.9822C2.06488 13.8638 2.00089 13.6079 2.11928 13.4106C2.15448 13.3519 2.20355 13.3028 2.2622 13.2677L3.26394 12.6666L10.0001 16.7082L16.7362 12.6666ZM16.7362 8.74992L17.7379 9.351C17.9353 9.46942 17.9992 9.72533 17.8808 9.92267C17.8456 9.98133 17.7966 10.0304 17.7379 10.0656L10.0001 14.7083L2.2622 10.0656C2.06488 9.94717 2.00089 9.69125 2.11928 9.49392C2.15448 9.43525 2.20355 9.38617 2.2622 9.351L3.26394 8.74992L10.0001 12.7916L16.7362 8.74992ZM10.4288 1.09053L17.7379 5.476C17.9353 5.59439 17.9992 5.85033 17.8808 6.04766C17.8456 6.10631 17.7966 6.15539 17.7379 6.19057L10.0001 10.8332L2.2622 6.19057C2.06488 6.07218 2.00089 5.81624 2.11928 5.61892C2.15448 5.56027 2.20355 5.51119 2.2622 5.476L9.57134 1.09053C9.83518 0.932199 10.1649 0.932199 10.4288 1.09053ZM10.0001 2.77694L4.90613 5.83329L10.0001 8.88967L15.094 5.83329L10.0001 2.77694Z" fill="#FC9237"/>
</svg>
