<svg width="22" height="20" viewBox="0 0 400 400" fill="none" xmlns="http://www.w3.org/2000/svg">
<path d="M199.107 8.03572L238.854 51.6614L295.089 33.7541L307.699 91.4086L365.353 104.018L347.446 160.253L391.071 200L347.446 239.747L365.353 295.982L307.699 308.591L295.089 366.246L238.854 348.339L199.107 391.964L159.36 348.339L103.125 366.246L90.5157 308.591L32.8612 295.982L50.7685 239.747L7.14285 200L50.7685 160.253L32.8612 104.018L90.5157 91.4086L103.125 33.7541L159.36 51.6614L199.107 8.03572Z" fill="#FF0420"/>
<path fill-rule="evenodd" clip-rule="evenodd" d="M180.566 195.189C183.859 195.189 186.528 197.858 186.528 201.151C186.528 207.737 191.867 213.075 198.453 213.075C205.039 213.075 210.377 207.737 210.377 201.151C210.377 197.858 213.047 195.189 216.34 195.189C219.632 195.189 222.302 197.858 222.302 201.151C222.302 214.322 211.624 225 198.453 225C185.281 225 174.604 214.322 174.604 201.151C174.604 197.858 177.273 195.189 180.566 195.189Z" fill="#FBFCFE"/>
<path fill-rule="evenodd" clip-rule="evenodd" d="M123.887 190.438C127.18 190.438 129.85 187.768 129.85 184.475C129.85 177.89 135.188 172.551 141.774 172.551C148.36 172.551 153.699 177.89 153.699 184.475C153.699 187.768 156.368 190.438 159.661 190.438C162.954 190.438 165.623 187.768 165.623 184.475C165.623 171.304 154.946 160.626 141.774 160.626C128.603 160.626 117.925 171.304 117.925 184.475C117.925 187.768 120.594 190.438 123.887 190.438Z" fill="white"/>
<path fill-rule="evenodd" clip-rule="evenodd" d="M238.437 190.438C241.73 190.438 244.4 187.768 244.4 184.475C244.4 177.889 249.738 172.551 256.324 172.551C262.91 172.551 268.249 177.89 268.249 184.475C268.249 187.768 270.918 190.438 274.211 190.438C277.504 190.438 280.173 187.768 280.173 184.475C280.173 171.304 269.496 160.626 256.324 160.626C243.153 160.626 232.475 171.304 232.475 184.475C232.475 187.768 235.144 190.438 238.437 190.438Z" fill="white"/>
</svg>
