<svg width="20" height="20" viewBox="0 0 20 20" fill="none" xmlns="http://www.w3.org/2000/svg">
<path d="M16.6667 7.5V4.16667H3.33332V7.5H16.6667ZM16.6667 9.16667H3.33332V15.8333H16.6667V9.16667ZM2.49999 2.5H17.5C17.9602 2.5 18.3333 2.8731 18.3333 3.33333V16.6667C18.3333 17.1269 17.9602 17.5 17.5 17.5H2.49999C2.03976 17.5 1.66666 17.1269 1.66666 16.6667V3.33333C1.66666 2.8731 2.03976 2.5 2.49999 2.5ZM4.16666 10H6.66666V14.1667H4.16666V10ZM4.16666 5H5.83332V6.66667H4.16666V5ZM7.49999 5H9.16666V6.66667H7.49999V5Z" fill="#FC9237"/>
</svg>
