<svg width="20" height="20" viewBox="0 0 20 20" fill="none" xmlns="http://www.w3.org/2000/svg">
<path d="M3.02633 3.88325C4.14732 3.48472 5.44712 3.73408 6.34436 4.63133C7.36338 5.65033 7.54674 7.18855 6.8944 8.39441L16.6296 18.1306L15.3439 19.4163L5.6085 9.68068C4.40254 10.3335 2.86384 10.1504 1.84459 9.1311C0.947092 8.2336 0.697846 6.93332 1.09686 5.81211L3.13024 7.84545C3.66277 8.37798 4.52618 8.37798 5.05872 7.84545C5.59124 7.31292 5.59124 6.44951 5.05872 5.91698L3.02633 3.88325ZM12.4512 5.59556L15.3439 3.98851L16.6296 5.27415L15.0225 8.16686L13.4155 8.48827L11.4869 10.4167L10.2013 9.1311L12.1297 7.20263L12.4512 5.59556ZM6.34436 12.988L7.63002 14.2737L2.80883 19.0949C2.45381 19.4499 1.8782 19.4499 1.52318 19.0949C1.19352 18.7652 1.16997 18.2454 1.45254 17.8885L1.52318 17.8093L6.34436 12.988Z" fill="#FC9237"/>
</svg>
