<svg width="1782" height="159" viewBox="0 0 1782 159" fill="none" xmlns="http://www.w3.org/2000/svg">
<path d="M1487.82 38.3701C1522.7 38.3702 1545.59 64.5304 1545.59 98.3203C1545.59 132.11 1522.7 158.269 1487.82 158.27C1452.94 158.27 1430.05 132.11 1430.05 98.3203C1430.05 64.5303 1452.94 38.3701 1487.82 38.3701ZM1620 38.3701C1645.51 38.3702 1661.64 51.4504 1669.05 71.0703H1646.38C1642.45 62.3503 1633.73 55.8096 1620 55.8096C1594.93 55.8096 1584.25 75.4303 1584.25 98.3203C1584.25 121.21 1594.93 140.83 1620 140.83C1635.04 140.83 1643.76 133.854 1648.12 123.39H1670.14C1663.82 144.318 1646.81 158.269 1620 158.27C1584.03 158.27 1563.32 132.11 1563.32 98.3203C1563.32 64.5303 1584.03 38.3701 1620 38.3701ZM1733.27 38.3701C1764.45 38.3702 1778.18 55.5923 1779.05 71.0703H1758.56C1758.12 61.2603 1749.62 54.2842 1732.84 54.2842C1714.74 54.2843 1707.11 61.2605 1707.11 69.9805C1707.11 81.0981 1716.05 84.5857 1730.44 86.7656L1740.9 88.292C1763.36 91.562 1781.23 98.974 1781.23 123.39C1781.23 144.318 1763.57 158.269 1733.27 158.27C1702.1 158.27 1684.88 143.446 1684.22 123.39H1705.37C1705.8 136.252 1716.05 142.138 1733.27 142.138C1751.15 142.138 1760.52 135.598 1760.52 125.134C1760.52 113.144 1750.71 110.528 1736.98 108.566L1726.73 107.04C1703.41 103.552 1686.4 93.5236 1686.4 71.7236C1686.4 52.3218 1702.97 38.3701 1733.27 38.3701ZM87.0938 0C98.4693 0 108.663 1.88963 117.676 5.66895C126.689 9.30333 133.779 14.8279 138.95 22.2422C144.121 29.5105 146.706 38.2325 146.706 48.4082C146.706 51.461 146.337 55.3131 145.599 59.9648C143.381 72.9026 140.722 85.4783 137.621 97.6895C132.45 117.605 123.51 132.505 110.805 142.391C98.0993 152.13 81.1083 157 59.834 157C42.2542 157 27.8493 152.93 16.6211 144.789C5.54007 136.503 0 124.728 0 109.464C2.34279e-05 106.265 0.368218 102.341 1.1084 97.6895C3.02745 87.2227 5.76246 74.6474 9.30762 59.9648C19.3537 19.9882 45.2819 9.48288e-05 87.0938 0ZM927.782 0C939.005 0 948.978 1.96278 957.701 5.8877C966.416 9.81261 973.135 14.8278 977.862 20.9336C982.74 26.8934 985.177 32.8542 985.177 38.8145C985.177 40.5585 985.105 41.794 984.954 42.5205C984.659 43.8289 983.998 44.9196 982.965 45.792C982.074 46.664 980.966 47.0996 979.637 47.0996H949.94C946.694 47.0995 944.473 45.8647 943.296 43.3936C943.145 40.0501 941.37 37.2146 937.971 34.8887C934.58 32.5627 930.146 31.4004 924.679 31.4004C918.176 31.4004 912.788 32.5629 908.497 34.8887C904.366 37.2146 901.78 40.6313 900.745 45.1377C900.594 45.8646 900.522 46.8097 900.522 47.9727C900.523 51.4613 902.593 54.3685 906.73 56.6943C911.012 58.8748 918.472 61.1282 929.112 63.4541C945.659 66.6525 957.695 71.2321 965.23 77.1924C972.912 83.1527 976.755 91.0749 976.755 100.96C976.755 104.303 976.309 107.938 975.427 111.862C972.178 126.69 964.276 137.957 951.716 145.661C939.3 153.221 922.681 157 901.853 157C888.847 157 877.695 155.256 868.39 151.768C859.23 148.278 852.283 143.625 847.554 137.811C842.977 131.996 840.685 125.527 840.685 118.404C840.685 117.241 840.835 115.497 841.13 113.171C841.425 111.863 842.014 110.772 842.905 109.9C843.94 109.028 845.12 108.592 846.449 108.592H874.813C876.589 108.592 877.919 108.882 878.803 109.464C879.838 110.045 880.87 111.063 881.905 112.517C882.94 116.296 885.304 119.422 888.998 121.894C892.841 124.364 898.088 125.6 904.732 125.6C913.154 125.6 919.952 124.292 925.125 121.675C930.291 119.058 933.394 115.497 934.429 110.99C934.58 110.409 934.651 109.536 934.651 108.373C934.651 104.739 932.359 101.904 927.782 99.8691C923.199 97.6891 914.777 95.1447 902.512 92.2373C888.186 89.1844 877.329 84.6058 869.942 78.5C862.549 72.2492 858.857 64.1086 858.856 54.0781C858.856 50.5894 859.302 47.0278 860.186 43.3936C863.145 29.8739 870.453 19.2614 882.129 11.5566C893.948 3.85206 909.167 8.42078e-06 927.782 0ZM1337.03 2.40039C1383.9 2.4005 1411.15 30.7403 1411.15 78.7002C1411.15 126.66 1383.9 155 1337.03 155H1283.62V2.40039H1337.03ZM260.94 2.18066C277.34 2.18071 290.489 5.52372 300.388 12.2109C310.434 18.8978 315.458 28.5657 315.458 41.2129C315.458 44.8468 315.014 48.6269 314.128 52.5518C310.434 69.269 302.973 81.6253 291.745 89.6201C280.664 97.6159 265.446 101.614 246.093 101.614H216.176L205.98 149.368C205.686 150.967 204.872 152.275 203.542 153.293C202.212 154.31 200.809 154.819 199.332 154.819H169.192C167.568 154.819 166.312 154.31 165.426 153.293C164.687 152.13 164.467 150.822 164.762 149.368L195.344 7.63184C195.64 6.03304 196.452 4.72445 197.781 3.70703C199.111 2.68918 200.514 2.18073 201.991 2.18066H260.94ZM472.427 2.18066C474.051 2.18066 475.308 2.68911 476.195 3.70703C476.786 4.57887 477.081 5.45141 477.081 6.32324C477.081 6.75921 477.007 7.19544 476.859 7.63184L471.762 30.9639C471.465 32.5632 470.653 33.8708 469.325 34.8887C468.143 35.9061 466.738 36.4149 465.114 36.415H425.889L401.289 149.368C400.994 150.967 400.182 152.276 398.853 153.293C397.523 154.31 396.119 154.819 394.641 154.819H365.388C363.764 154.819 362.508 154.31 361.622 153.293C360.736 152.13 360.44 150.822 360.736 149.368L385.333 36.415H345.887C344.261 36.415 343.005 35.9061 342.121 34.8887C341.381 33.7258 341.159 32.4177 341.454 30.9639L346.552 7.63184C346.846 6.03294 347.661 4.72448 348.99 3.70703C350.32 2.68916 351.723 2.18066 353.2 2.18066H472.427ZM545.449 2.18066C547.075 2.1807 548.331 2.68924 549.217 3.70703C549.808 4.57892 550.104 5.45135 550.104 6.32324C550.104 6.75918 550.029 7.19547 549.882 7.63184L519.3 149.368C519.003 150.967 518.191 152.276 516.863 153.293C515.532 154.31 514.128 154.819 512.651 154.819H482.734C481.108 154.819 479.853 154.31 478.967 153.293C478.081 152.13 477.784 150.822 478.08 149.368L508.884 7.63184C509.18 6.03298 509.993 4.72447 511.322 3.70703C512.652 2.68926 514.055 2.18066 515.532 2.18066H545.449ZM623.85 2.18066C627.396 2.18072 629.686 3.77935 630.721 6.97754L654.877 75.665L708.727 6.97754C709.467 5.81472 710.501 4.72441 711.829 3.70703C713.306 2.68915 715.08 2.1807 717.149 2.18066H741.301C742.925 2.18066 744.183 2.68912 745.074 3.70703C745.664 4.57892 745.958 5.45135 745.958 6.32324C745.958 6.7592 745.886 7.19545 745.735 7.63184L715.153 149.368C714.859 150.967 714.046 152.275 712.717 153.293C711.385 154.31 709.982 154.819 708.505 154.819H681.691C680.065 154.819 678.809 154.31 677.923 153.293C677.185 152.13 676.962 150.821 677.259 149.368L694.544 68.9053L660.638 113.171C659.161 114.77 657.757 116.006 656.428 116.878C655.098 117.75 653.546 118.185 651.772 118.186H640.249C637.146 118.186 635.005 116.515 633.822 113.171L618.089 66.9434L600.359 149.368C600.063 150.967 599.251 152.275 597.921 153.293C596.591 154.31 595.188 154.819 593.711 154.819H567.118C565.492 154.819 564.236 154.31 563.351 153.293C562.465 152.275 562.168 150.967 562.465 149.368L593.047 7.63184C593.342 6.03304 594.155 4.72445 595.484 3.70703C596.814 2.68911 598.292 2.18066 599.916 2.18066H623.85ZM825.446 2.18066C827.069 2.18066 828.327 2.68911 829.211 3.70703C829.807 4.57892 830.101 5.45136 830.102 6.32324C830.102 6.7592 830.023 7.19545 829.879 7.63184L799.294 149.368C798.999 150.967 798.185 152.276 796.857 153.293C795.528 154.31 794.126 154.819 792.646 154.819H762.729C761.104 154.819 759.846 154.31 758.962 153.293C758.08 152.13 757.777 150.822 758.079 149.368L788.881 7.63184C789.176 6.03296 789.988 4.72448 791.317 3.70703C792.645 2.68913 794.047 2.18066 795.527 2.18066H825.446ZM1062.89 2.18066C1066.43 2.18074 1068.72 3.7794 1069.76 6.97754L1093.92 75.665L1147.77 6.97754C1148.51 5.8146 1149.54 4.7245 1150.87 3.70703C1152.34 2.68917 1154.12 2.18066 1156.19 2.18066H1180.34C1181.97 2.18072 1183.23 2.68916 1184.11 3.70703C1184.7 4.57889 1185 5.45139 1185 6.32324C1185 6.75917 1184.92 7.19547 1184.78 7.63184L1154.19 149.368C1153.89 150.967 1153.08 152.275 1151.75 153.293C1150.43 154.31 1149.02 154.819 1147.54 154.819H1120.73C1119.11 154.819 1117.85 154.31 1116.96 153.293C1116.22 152.13 1116 150.822 1116.3 149.368L1133.58 68.9053L1099.68 113.171C1098.2 114.77 1096.8 116.006 1095.47 116.878C1094.14 117.75 1092.59 118.186 1090.81 118.186H1079.29C1076.18 118.185 1074.04 116.515 1072.86 113.171L1057.13 66.9434L1039.4 149.368C1039.1 150.967 1038.29 152.275 1036.96 153.293C1035.63 154.31 1034.23 154.819 1032.75 154.819H1006.16C1004.53 154.819 1003.28 154.31 1002.39 153.293C1001.5 152.276 1001.21 150.967 1001.5 149.368L1032.09 7.63184C1032.38 6.03293 1033.19 4.72449 1034.52 3.70703C1035.85 2.68936 1037.33 2.18074 1038.96 2.18066H1062.89ZM1487.82 55.8096C1463.84 55.8096 1450.97 75.4303 1450.97 98.3203C1450.97 121.21 1463.84 140.83 1487.82 140.83C1511.8 140.83 1524.66 121.21 1524.66 98.3203C1524.66 75.4304 1511.8 55.8097 1487.82 55.8096ZM1305.42 136.47H1334.85C1370.82 136.47 1389.35 114.67 1389.35 78.7002C1389.35 42.7302 1370.82 20.9297 1334.85 20.9297H1305.42V136.47ZM84.2119 31.4004C75.9376 31.4004 68.8472 33.7984 62.9375 38.5957C57.1751 43.393 53.0383 50.734 50.5264 60.6191C47.8671 70.3589 45.2081 82.2794 42.5488 96.3809C41.9577 99.2883 41.6631 102.341 41.6631 105.539C41.6632 118.913 48.7552 125.6 62.9375 125.6C71.2119 125.6 78.2288 123.202 83.9912 118.404C89.9009 113.607 94.1111 106.265 96.623 96.3809C100.021 82.7154 102.606 70.7949 104.38 60.6191C104.969 57.5664 105.266 54.4414 105.266 51.2432C105.266 38.0145 98.2469 31.4004 84.2119 31.4004ZM222.159 71.5225H247.644C253.848 71.5225 259.24 69.8503 263.822 66.5068C268.55 63.163 271.653 58.366 273.13 52.1152C273.572 49.6439 273.793 47.4631 273.793 45.5732C273.793 41.3576 272.536 38.1599 270.026 35.9795C267.514 33.6536 263.229 32.4902 257.174 32.4902H230.579L222.159 71.5225Z" fill="black"/>
</svg>
