<?xml version="1.0" standalone="no"?>
<!DOCTYPE svg PUBLIC "-//W3C//DTD SVG 20010904//EN"
 "http://www.w3.org/TR/2001/REC-SVG-20010904/DTD/svg10.dtd">
<svg version="1.0" xmlns="http://www.w3.org/2000/svg"
 width="582.000000pt" height="96.000000pt" viewBox="0 0 582.000000 96.000000"
 preserveAspectRatio="xMidYMid meet">

<g transform="translate(0.000000,96.000000) scale(0.100000,-0.100000)"
fill="#000000" stroke="none">
<path d="M223 720 c-89 -21 -143 -84 -173 -204 -37 -146 -23 -214 52 -256 31
-17 55 -22 112 -22 156 1 223 72 257 272 15 91 8 123 -35 166 -48 48 -128 65
-213 44z m112 -104 c16 -11 17 -22 12 -77 -10 -105 -33 -167 -70 -189 -42 -26
-82 -25 -108 1 -18 18 -20 28 -14 66 15 100 35 158 65 186 34 30 84 36 115 13z"/>
<path d="M2831 715 c-75 -24 -121 -82 -121 -155 0 -56 37 -93 116 -115 81 -21
108 -37 112 -62 2 -16 -5 -26 -27 -37 -46 -24 -98 -21 -125 9 -20 21 -32 25
-80 25 -55 0 -56 -1 -56 -29 0 -37 34 -80 78 -98 47 -19 180 -18 229 2 48 20
82 51 99 92 41 97 -12 158 -164 188 -32 7 -62 28 -62 46 0 5 9 18 20 29 29 29
85 27 115 -6 20 -22 30 -25 77 -22 52 3 53 3 51 33 -2 20 -14 41 -37 62 -56
51 -137 65 -225 38z"/>
<path d="M4680 719 c-83 -26 -128 -86 -160 -219 -26 -112 -26 -158 3 -201 30
-45 70 -63 142 -63 118 0 189 66 225 209 35 140 24 221 -36 260 -32 21 -126
28 -174 14z m123 -58 c41 -16 50 -61 31 -161 -27 -148 -74 -205 -171 -205 -68
0 -93 24 -93 89 0 55 33 188 54 221 36 55 116 80 179 56z"/>
<path d="M5137 715 c-77 -27 -117 -84 -147 -206 -34 -144 -23 -216 39 -251
110 -64 278 1 315 120 7 19 4 22 -24 22 -24 0 -35 -7 -51 -34 -30 -51 -65 -70
-130 -71 -97 0 -117 37 -92 170 28 149 75 205 174 205 59 0 96 -27 101 -73 3
-28 7 -32 33 -32 29 0 30 2 29 43 -2 96 -127 150 -247 107z"/>
<path d="M5575 715 c-22 -8 -55 -30 -72 -49 -28 -30 -33 -44 -33 -83 0 -65 31
-95 130 -128 93 -31 116 -52 103 -91 -13 -39 -53 -65 -107 -71 -62 -7 -105 12
-122 54 -22 52 -83 41 -70 -13 19 -75 114 -116 219 -94 98 20 146 68 150 150
2 49 -28 83 -92 106 -25 9 -65 23 -89 32 -24 8 -47 23 -53 33 -26 49 31 109
103 109 55 0 84 -15 96 -50 10 -26 16 -31 39 -28 25 3 28 7 26 36 -3 82 -118
126 -228 87z"/>
<path d="M636 703 c-7 -24 -96 -444 -96 -455 0 -4 27 -8 60 -8 l59 0 10 38 c5
20 13 57 18 82 l9 45 89 6 c53 3 103 12 121 22 76 39 119 141 90 211 -25 59
-74 76 -228 76 -112 0 -127 -2 -132 -17z m225 -83 c19 -11 25 -43 13 -75 -10
-25 -58 -45 -109 -45 -51 0 -51 1 -33 79 l11 51 49 0 c27 0 58 -5 69 -10z"/>
<path d="M1106 703 c-2 -10 -7 -33 -11 -50 l-7 -33 65 0 c35 0 66 -2 69 -5 2
-3 -12 -84 -33 -181 -21 -97 -36 -181 -33 -185 3 -5 29 -9 59 -9 42 0 55 4 59
18 5 18 76 351 76 358 0 2 31 4 70 4 l69 0 10 38 c19 66 29 62 -188 62 -182 0
-200 -2 -205 -17z"/>
<path d="M1617 713 c-7 -11 -97 -439 -97 -458 0 -12 12 -15 55 -15 48 0 57 3
65 23 5 12 28 110 50 217 23 107 44 205 47 218 5 21 2 22 -55 22 -34 0 -63 -3
-65 -7z"/>
<path d="M1875 698 c-30 -124 -93 -443 -89 -449 3 -5 27 -9 54 -9 56 0 51 -9
86 160 24 121 28 124 56 39 24 -71 26 -74 59 -77 32 -3 38 2 92 75 31 42 57
74 57 70 0 -4 -11 -59 -25 -123 -14 -64 -25 -122 -25 -130 0 -10 14 -14 55
-14 48 0 55 3 60 22 11 49 95 449 95 453 0 3 -24 5 -52 5 l-53 0 -89 -117 -89
-116 -41 116 -40 117 -53 0 c-46 0 -53 -3 -58 -22z"/>
<path d="M2485 698 c-38 -165 -93 -443 -89 -449 3 -5 29 -9 59 -9 42 0 55 4
59 18 9 29 96 436 96 449 0 9 -18 13 -60 13 -54 0 -60 -2 -65 -22z"/>
<path d="M3245 698 c-30 -124 -93 -443 -89 -449 3 -5 27 -9 54 -9 56 0 51 -9
86 160 24 121 28 124 56 39 24 -71 26 -74 59 -77 32 -3 38 2 92 75 31 42 57
74 57 70 0 -4 -11 -59 -25 -123 -14 -64 -25 -122 -25 -130 0 -10 14 -14 55
-14 48 0 55 3 60 22 11 49 95 449 95 453 0 3 -24 5 -52 5 l-53 0 -89 -117 -89
-116 -41 116 -40 117 -53 0 c-46 0 -53 -3 -58 -22z"/>
<path d="M4105 698 c-5 -21 -77 -365 -91 -431 l-6 -27 114 0 c129 0 174 10
218 47 44 36 66 86 89 196 21 104 17 153 -16 189 -33 37 -76 48 -192 48 -106
0 -111 -1 -116 -22z m242 -53 c34 -24 37 -70 14 -170 -36 -152 -63 -175 -199
-175 l-74 0 6 33 c3 17 20 98 37 180 l32 147 81 0 c57 0 88 -5 103 -15z"/>
</g>
</svg>
